# Object Export From Tinkercad Server 2015

mtllib obj.mtl

o obj_0
v 46 		20 		21
v 46 		-20 		21
v 46 		20 		37
v 46 		-20 		37
v 48 		20 		37
v 48 		-20 		37
v 48 		20 		21
v 48 		-20 		21
# 8 vertices

g group_0_-1716459281

usemtl color_-1716459281
s 0

f 1 	2 	3
f 2 	4 	3
f 5 	6 	7
f 6 	8 	7
f 5 	7 	3
f 7 	1 	3
f 8 	6 	2
f 6 	4 	2
f 7 	8 	1
f 8 	2 	1
f 3 	4 	5
f 4 	6 	5
# 12 faces

 #end of obj_0

o obj_1
v 46 		20 		21
v 46 		-20 		21
v 46 		20 		37
v 46 		-20 		37
v 48 		20 		37
v 48 		-20 		37
v 48 		20 		21
v 48 		-20 		21
# 8 vertices

g group_1_-1716459281

usemtl color_-1716459281
s 0

f 9 	10 	11
f 10 	12 	11
f 13 	14 	15
f 14 	16 	15
f 13 	15 	11
f 15 	9 	11
f 16 	14 	10
f 14 	12 	10
f 15 	16 	9
f 16 	10 	9
f 11 	12 	13
f 12 	14 	13
# 12 faces

 #end of obj_1

o obj_2
v 4 		29 		21
v 33 		29 		21
v 4 		29 		37
v 33 		29 		37
v 4 		32 		37
v 33 		32 		37
v 4 		32 		21
v 33 		32 		21
# 8 vertices

g group_2_-1716459281

usemtl color_-1716459281
s 0

f 17 	18 	19
f 18 	20 	19
f 21 	22 	23
f 22 	24 	23
f 21 	23 	19
f 23 	17 	19
f 24 	22 	18
f 22 	20 	18
f 23 	24 	17
f 24 	18 	17
f 19 	20 	21
f 20 	22 	21
# 12 faces

 #end of obj_2

o obj_3
v -40 		29 		21
v -11 		29 		21
v -40 		29 		37
v -11 		29 		37
v -40 		32 		37
v -11 		32 		37
v -40 		32 		21
v -11 		32 		21
# 8 vertices

g group_3_-1716459281

usemtl color_-1716459281
s 0

f 25 	26 	27
f 26 	28 	27
f 29 	30 	31
f 30 	32 	31
f 29 	31 	27
f 31 	25 	27
f 32 	30 	26
f 30 	28 	26
f 31 	32 	25
f 32 	26 	25
f 27 	28 	29
f 28 	30 	29
# 12 faces

 #end of obj_3

o obj_4
v 36 		-33 		21
v 19.998 		-33 		21
v 36 		-33 		37
v 19.998 		-33 		37
v 36 		-34 		37
v 19.998 		-34 		37
v 36 		-34 		21
v 19.998 		-34 		21
# 8 vertices

g group_4_-1716459281

usemtl color_-1716459281
s 0

f 33 	34 	35
f 34 	36 	35
f 37 	38 	39
f 38 	40 	39
f 37 	39 	35
f 39 	33 	35
f 40 	38 	34
f 38 	36 	34
f 39 	40 	33
f 40 	34 	33
f 35 	36 	37
f 36 	38 	37
# 12 faces

 #end of obj_4

o obj_5
v 46.003 		20.003 		37.039
v 48 		20.003 		37.039
v 48 		-19.945 		37.039
v 46.003 		-19.945 		37.039
v 48 		20.003 		21.091
v 46.003 		20.003 		21.091
v 46.003 		-19.945 		21.091
v 48 		-19.945 		21.091
v 9.003 		-33.003 		0
v 9.003 		-34 		0
v 9.003 		-34 		35.003
v 9.003 		-33.003 		35.003
v 35.945 		-33.003 		37.039
v 35.945 		-34 		37.039
v 19.998 		-34 		37.039
v 19.998 		-33.003 		37.039
v 19.998 		-33.003 		21.091
v 19.998 		-34 		21.091
v 35.945 		-34 		21.091
v 35.945 		-33.003 		21.091
v -47.003 		29.003 		60.003
v 46.003 		29.003 		60.003
v 46.003 		-33.003 		60.003
v -47.003 		-33.003 		60.003
v -47.003 		29.003 		0
v -47.003 		-33.003 		0
v 46.003 		29.003 		0
v 46.003 		-33.003 		0
v -10.998 		29.003 		21.091
v -10.998 		32 		21.091
v -39.945 		32 		21.091
v -39.945 		29.003 		21.091
v -39.945 		32 		37.039
v -39.945 		29.003 		37.039
v -10.998 		29.003 		37.039
v -10.998 		32 		37.039
v -11.003 		-33.003 		35.003
v -11.003 		-33.003 		0
v -11.003 		-34 		0
v 32.945 		29.003 		21.091
v 3.998 		29.003 		21.091
v 32.945 		29.003 		37.039
v -52 		-34 		0
v -52 		32 		0
v 3.998 		29.003 		37.039
v 32.945 		32 		37.039
v 3.998 		32 		37.039
v 48 		32 		0
v 48 		-34 		0
v 32.945 		32 		21.091
v 3.998 		32 		21.091
v -11.003 		-34 		35.003
v -52 		32 		62
v 48 		32 		62
v -52 		-34 		62
v 48 		-34 		62
# 56 vertices

g group_5_15294237

usemtl color_15294237
s 0

f 41 	42 	43
f 41 	43 	44
f 45 	46 	47
f 45 	47 	48
f 46 	45 	42
f 46 	42 	41
f 44 	43 	48
f 44 	48 	47
f 49 	50 	51
f 49 	51 	52
f 53 	54 	55
f 53 	55 	56
f 57 	58 	59
f 57 	59 	60
f 56 	55 	58
f 56 	58 	57
f 60 	59 	54
f 60 	54 	53
f 61 	62 	63
f 61 	63 	64
f 65 	61 	64
f 65 	64 	66
f 41 	44 	62
f 67 	47 	46
f 62 	67 	41
f 46 	41 	67
f 62 	44 	63
f 68 	63 	44
f 68 	44 	47
f 68 	47 	67
f 69 	70 	71
f 69 	71 	72
f 72 	71 	73
f 72 	73 	74
f 70 	69 	75
f 70 	75 	76
f 77 	64 	52
f 63 	56 	64
f 78 	66 	77
f 64 	77 	66
f 53 	56 	63
f 84 	88 	65
f 67 	65 	88
f 60 	68 	57
f 66 	78 	79
f 67 	80 	81
f 89 	50 	68
f 80 	67 	82
f 62 	82 	67
f 66 	83 	65
f 79 	83 	66
f 84 	65 	83
f 75 	85 	61
f 74 	75 	61
f 65 	69 	72
f 61 	65 	74
f 72 	74 	65
f 62 	61 	85
f 81 	85 	75
f 75 	69 	81
f 69 	65 	81
f 67 	81 	65
f 86 	82 	85
f 86 	85 	87
f 89 	67 	88
f 49 	68 	50
f 67 	89 	68
f 80 	90 	91
f 80 	91 	81
f 90 	80 	82
f 90 	82 	86
f 92 	51 	95
f 81 	91 	87
f 81 	87 	85
f 76 	75 	74
f 76 	74 	73
f 50 	59 	58
f 52 	64 	56
f 56 	57 	52
f 49 	52 	57
f 63 	68 	53
f 60 	53 	68
f 49 	57 	68
f 52 	51 	92
f 52 	92 	77
f 88 	91 	90
f 77 	92 	79
f 77 	79 	78
f 94 	88 	86
f 87 	94 	86
f 90 	86 	88
f 70 	84 	71
f 71 	84 	73
f 84 	93 	73
f 76 	87 	70
f 73 	93 	76
f 87 	91 	70
f 88 	84 	91
f 70 	91 	84
f 76 	93 	87
f 94 	87 	93
f 85 	82 	62
f 95 	51 	55
f 54 	96 	55
f 58 	55 	51
f 51 	50 	58
f 50 	89 	59
f 95 	55 	96
f 79 	92 	83
f 83 	92 	95
f 54 	59 	89
f 96 	54 	89
f 94 	43 	42
f 89 	88 	48
f 45 	88 	42
f 45 	48 	88
f 88 	94 	42
f 48 	43 	89
f 96 	89 	43
f 96 	43 	94
f 93 	84 	83
f 93 	83 	95
f 94 	93 	95
f 94 	95 	96
# 124 faces

 #end of obj_5

o obj_6
v 46 		-33 		1
v 46 		-33 		0
v 46 		29 		0
v 46 		29 		1
v -47 		29 		1
v -47 		29 		0
v -47 		-33 		0
v -47 		-33 		1
v -10.003 		-31.998 		1
v 9.003 		-31.998 		1
v -10.003 		-33 		1
v 9.003 		-33 		1
v 9.003 		-31.998 		0
v -10.003 		-31.998 		0
v -10.003 		-33 		0
v 9.003 		-33 		0
# 16 vertices

g group_6_11107152

usemtl color_11107152
s 0

f 97 	98 	99
f 97 	99 	100
f 101 	102 	103
f 101 	103 	104
f 105 	106 	101
f 101 	104 	105
f 107 	105 	104
f 100 	101 	106
f 108 	97 	106
f 100 	106 	97
f 110 	99 	109
f 111 	103 	110
f 103 	102 	110
f 99 	110 	102
f 98 	112 	109
f 98 	109 	99
f 104 	103 	111
f 104 	111 	107
f 108 	112 	98
f 108 	98 	97
f 101 	100 	99
f 110 	105 	107
f 110 	107 	111
f 108 	106 	109
f 108 	109 	112
f 101 	99 	102
f 105 	110 	109
f 105 	109 	106
# 28 faces

 #end of obj_6

o obj_7
v 50 		34 		62
v 50 		-1.5 		97
v 50 		-37 		62
v -54 		-37 		62
v -54 		-1.5 		97
v -54 		34 		62
# 6 vertices

g group_7_15277357

usemtl color_15277357
s 0

f 113 	114 	115
f 116 	117 	118
f 113 	115 	118
f 115 	116 	118
f 115 	114 	116
f 114 	117 	116
f 114 	113 	117
f 113 	118 	117
# 8 faces

 #end of obj_7

o obj_8
v -10 		-37 		24
v -10.988 		-37 		24
v -10 		-37 		29
v -10.988 		-37 		29
v -10 		-49 		29
v -10.988 		-49 		29
v -10 		-49 		24
v -10.988 		-49 		24
# 8 vertices

g group_8_-1716459281

usemtl color_-1716459281
s 0

f 119 	120 	121
f 120 	122 	121
f 123 	124 	125
f 124 	126 	125
f 123 	125 	121
f 125 	119 	121
f 126 	124 	120
f 124 	122 	120
f 125 	126 	119
f 126 	120 	119
f 121 	122 	123
f 122 	124 	123
# 12 faces

 #end of obj_8

o obj_9
v -10 		-33 		0.009
v -10.988 		-33 		0.009
v -10.988 		-33 		35
v -10 		-33 		35
v -10 		-53 		35
v -10.988 		-53 		35
v -10.988 		-53 		0.009
v -10 		-53 		0.009
v -10 		-49.003 		29.003
v -10 		-36.998 		29.003
v -10 		-36.998 		23.998
v -10 		-49.003 		23.998
v -10.988 		-36.998 		29.003
v -10.988 		-49.003 		29.003
v -10.988 		-49.003 		23.998
v -10.988 		-36.998 		23.998
# 16 vertices

g group_9_11107152

usemtl color_11107152
s 0

f 127 	128 	129
f 127 	129 	130
f 131 	132 	133
f 131 	133 	134
f 135 	136 	131
f 134 	137 	138
f 135 	131 	138
f 131 	134 	138
f 130 	131 	136
f 130 	136 	137
f 134 	127 	137
f 130 	137 	127
f 140 	132 	139
f 141 	142 	133
f 133 	132 	141
f 140 	141 	132
f 129 	139 	132
f 128 	133 	142
f 139 	129 	142
f 128 	142 	129
f 127 	134 	128
f 133 	128 	134
f 131 	130 	129
f 137 	142 	141
f 137 	141 	138
f 131 	129 	132
f 140 	135 	138
f 140 	138 	141
f 142 	137 	136
f 142 	136 	139
f 135 	140 	139
f 135 	139 	136
# 32 faces

 #end of obj_9

