# Object Export From Tinkercad Server 2015

mtllib obj.mtl

o obj_0
v 15 		9.659 		7.412
v -15 		-5 		18.66
v -15 		-6.088 		17.934
v -13.003 		-6.088 		17.934
v -13.003 		-5 		18.66
v -15 		-7.071 		17.071
v -13.003 		8.851 		8.835
v -15 		-1.305 		0.086
v -15 		0 		0
v -13.003 		0 		0
v -15 		-3.827 		19.239
v -8.998 		7.731 		5.536
v -13.003 		-1.305 		0.086
v -15 		-2.588 		19.659
v 15 		-10 		10
v -8.998 		-6.313 		16.313
v -8.998 		0 		0
v -8.998 		9.914 		8.695
v -8.998 		-8.248 		6.584
v -13.003 		-8.248 		6.584
v -8.998 		10 		10
v -8.998 		-6.088 		17.934
v -13.003 		-6.313 		16.313
v -8.998 		-7.071 		17.071
v -15 		-1.305 		19.914
v -15 		0 		20
v -15 		1.305 		19.914
v 15 		-9.914 		8.695
v -15 		2.588 		19.659
v -15 		3.827 		19.239
v -8.998 		-8.623 		7.689
v -15 		5 		18.66
v -13.003 		-8.623 		7.689
v -13.003 		-7.082 		15.435
v -8.998 		-7.082 		15.435
v -13.003 		-7.071 		17.071
v -15 		9.914 		8.695
v -15 		10 		10
v -8.998 		7.082 		4.565
v -13.003 		10 		10
v -15 		6.088 		17.934
v 15 		-7.934 		16.088
v -15 		7.071 		17.071
v -8.998 		-9.914 		11.305
v -8.998 		-9.659 		12.588
v -8.998 		-8.851 		8.835
v -8.998 		-9.914 		8.695
v -8.998 		-10 		10
v -8.998 		1.305 		0.086
v -8.998 		-8.927 		10
v -8.998 		-9.239 		13.827
v -15 		7.934 		16.088
v -15 		8.66 		15
v -15 		9.239 		13.827
v -15 		9.659 		12.588
v -15 		9.914 		11.305
v -13.003 		9.914 		8.695
v -8.998 		-8.851 		11.165
v -8.998 		9.914 		11.305
v -8.998 		-8.66 		15
v -15 		1.305 		0.086
v -13.003 		1.305 		0.086
v -13.003 		9.914 		11.305
v -8.998 		-8.623 		12.311
v -8.998 		9.239 		6.173
v -8.998 		-8.248 		13.416
v -8.998 		2.588 		0.341
v 15 		-8.66 		15
v -8.998 		8.66 		5
v -8.998 		8.623 		7.689
v -13.003 		0 		1.073
v -15 		9.659 		7.412
v -8.998 		0 		1.073
v -15 		9.239 		6.173
v -8.998 		-1.165 		1.149
v -8.998 		-5.435 		17.082
v 15 		-9.239 		13.827
v -13.003 		-5.435 		17.082
v -8.998 		9.659 		12.588
v -8.998 		9.659 		7.412
v -15 		8.66 		5
v -15 		7.934 		3.912
v -15 		2.588 		0.341
v -15 		7.071 		2.929
v -13.003 		2.588 		0.341
v -15 		6.088 		2.066
v -15 		5 		1.34
v -15 		3.827 		0.761
v -8.998 		8.248 		6.584
v -13.003 		9.659 		12.588
v -8.998 		-4.464 		17.731
v 15 		-9.659 		12.588
v -8.998 		9.239 		13.827
v -8.998 		-7.731 		14.464
v -13.003 		-1.165 		1.149
v -13.003 		-4.464 		17.731
v -8.998 		-7.934 		16.088
v 15 		-9.914 		11.305
v -13.003 		9.239 		13.827
v -15 		-10 		10
v -15 		-9.914 		11.305
v -15 		-9.659 		12.588
v -15 		-9.239 		13.827
v -15 		-8.66 		15
v -15 		-7.934 		16.088
v -8.998 		-3.416 		18.248
v -8.998 		-2.311 		1.377
v -13.003 		-3.416 		18.248
v -13.003 		-2.311 		1.377
v -8.998 		8.66 		15
v -15 		-9.914 		8.695
v -8.998 		-3.416 		1.752
v -8.998 		-2.311 		18.623
v -13.003 		8.66 		15
v 15 		-9.659 		7.412
v -13.003 		-2.311 		18.623
v -13.003 		-3.416 		1.752
v -8.998 		7.934 		16.088
v 15 		-9.239 		6.173
v -8.998 		-1.165 		18.851
v -13.003 		-1.165 		18.851
v -15 		-2.588 		0.341
v -15 		-3.827 		0.761
v -13.003 		-10 		10
v -15 		-5 		1.34
v -13.003 		-9.914 		8.695
v -15 		-6.088 		2.066
v -15 		-7.071 		2.929
v -13.003 		7.934 		16.088
v 15 		-8.66 		5
v -15 		-7.934 		3.912
v -8.998 		0 		18.927
v -15 		-8.66 		5
v -15 		-9.239 		6.173
v -15 		-9.659 		7.412
v -13.003 		-8.851 		8.835
v -13.003 		0 		18.927
v -8.998 		-4.464 		2.269
v -13.003 		-4.464 		2.269
v -13.003 		-9.659 		12.588
v -13.003 		-9.914 		11.305
v 15 		-7.934 		3.912
v -8.998 		1.165 		18.851
v -8.998 		-5.435 		2.918
v -13.003 		1.165 		18.851
v -13.003 		-5.435 		2.918
v 15 		-7.071 		2.929
v -13.003 		-8.927 		10
v -13.003 		-9.239 		13.827
v -13.003 		-8.851 		11.165
v -8.998 		-6.313 		3.687
v 15 		-6.088 		2.066
v -13.003 		-6.313 		3.687
v -8.998 		6.313 		16.313
v -13.003 		6.313 		16.313
v -13.003 		-8.66 		15
v 15 		7.071 		17.071
v 15 		6.088 		17.934
v 15 		5 		18.66
v 15 		-5 		1.34
v 15 		3.827 		19.239
v 15 		2.588 		19.659
v -8.998 		2.311 		18.623
v 15 		1.305 		19.914
v -13.003 		2.311 		18.623
v 15 		0 		20
v 15 		-1.305 		19.914
v 15 		-2.588 		19.659
v 15 		-3.827 		19.239
v -8.998 		7.082 		15.435
v 15 		-5 		18.66
v 15 		-6.088 		17.934
v 15 		-3.827 		0.761
v 15 		-7.071 		17.071
v -13.003 		6.313 		3.687
v -8.998 		3.416 		18.248
v -13.003 		3.416 		18.248
v 15 		-2.588 		0.341
v -13.003 		3.827 		0.761
v -13.003 		-8.623 		12.311
v -13.003 		5 		1.34
v -13.003 		6.088 		2.066
v -13.003 		7.071 		2.929
v -13.003 		7.934 		3.912
v -8.998 		4.464 		17.731
v -13.003 		-8.248 		13.416
v -13.003 		4.464 		17.731
v 15 		-1.305 		0.086
v -8.998 		3.827 		0.761
v -8.998 		5.435 		17.082
v -13.003 		5.435 		2.918
v -13.003 		5.435 		17.082
v 15 		0 		0
v -13.003 		7.082 		15.435
v -13.003 		-7.731 		14.464
v -13.003 		-7.934 		16.088
v 15 		10 		10
v -8.998 		7.731 		14.464
v 15 		9.914 		11.305
v -13.003 		7.731 		14.464
v 15 		9.659 		12.588
v -8.998 		7.071 		17.071
v 15 		9.239 		13.827
v -13.003 		4.464 		2.269
v 15 		8.66 		15
v -8.998 		-7.082 		4.565
v -13.003 		-7.082 		4.565
v 15 		7.934 		16.088
v -8.998 		-7.731 		5.536
v -8.998 		8.248 		13.416
v -13.003 		-7.731 		5.536
v -13.003 		8.248 		13.416
v 15 		9.914 		8.695
v -8.998 		5 		1.34
v -13.003 		3.416 		1.752
v -8.998 		8.623 		12.311
v -13.003 		8.623 		12.311
v -8.998 		-5 		18.66
v -8.998 		-3.827 		19.239
v -8.998 		-2.588 		19.659
v -8.998 		8.851 		11.165
v -13.003 		2.311 		1.377
v -13.003 		8.851 		11.165
v -8.998 		6.088 		2.066
v 15 		9.239 		6.173
v -8.998 		-9.659 		7.412
v -8.998 		-1.305 		19.914
v 15 		1.305 		0.086
v -8.998 		8.927 		10
v 15 		2.588 		0.341
v -13.003 		8.927 		10
v 15 		3.827 		0.761
v 15 		5 		1.34
v 15 		6.088 		2.066
v -13.003 		-9.659 		7.412
v 15 		7.071 		2.929
v 15 		7.934 		3.912
v 15 		8.66 		5
v -13.003 		1.165 		1.149
v -8.998 		8.851 		8.835
v -8.998 		7.071 		2.929
v -8.998 		-9.239 		6.173
v -8.998 		0 		20
v -8.998 		7.934 		3.912
v -13.003 		7.731 		5.536
v -8.998 		-8.66 		5
v -13.003 		7.082 		4.565
v -13.003 		-9.239 		6.173
v -13.003 		8.66 		5
v -13.003 		-8.66 		5
v -8.998 		1.305 		19.914
v -8.998 		2.588 		19.659
v -13.003 		7.071 		17.071
v -8.998 		3.827 		19.239
v -13.003 		8.623 		7.689
v -8.998 		5 		18.66
v -8.998 		-7.934 		3.912
v -13.003 		9.239 		6.173
v -13.003 		9.659 		7.412
v -13.003 		-7.934 		3.912
v -8.998 		6.088 		17.934
v -13.003 		8.248 		6.584
v -8.998 		-7.071 		2.929
v -13.003 		-7.071 		2.929
v -8.998 		-6.088 		2.066
v -13.003 		6.088 		17.934
v -13.003 		-6.088 		2.066
v -8.998 		-5 		1.34
v -13.003 		-5 		1.34
v -13.003 		5 		18.66
v -8.998 		-3.827 		0.761
v -8.998 		6.313 		3.687
v -13.003 		-3.827 		0.761
v -8.998 		-2.588 		0.341
v -13.003 		3.827 		19.239
v -13.003 		-2.588 		19.659
v -13.003 		-3.827 		19.239
v -13.003 		-2.588 		0.341
v -8.998 		-1.305 		0.086
v -13.003 		2.588 		19.659
v -13.003 		-1.305 		19.914
v -13.003 		0 		20
v -13.003 		1.305 		19.914
v -8.998 		5.435 		2.918
v -8.998 		4.464 		2.269
v -8.998 		3.416 		1.752
v -8.998 		2.311 		1.377
v -8.998 		1.165 		1.149
# 288 vertices

g group_0_16768577

usemtl color_16768577
s 0

f 2 	3 	4
f 2 	4 	5
f 8 	9 	10
f 8 	10 	13
f 19 	20 	209
f 31 	33 	20
f 31 	20 	19
f 16 	23 	34
f 16 	34 	35
f 3 	6 	36
f 3 	36 	4
f 3 	2 	6
f 6 	2 	11
f 6 	11 	14
f 6 	14 	25
f 6 	25 	26
f 6 	26 	27
f 6 	27 	29
f 6 	29 	30
f 6 	30 	32
f 6 	32 	41
f 6 	41 	43
f 69 	244 	12
f 45 	58 	44
f 50 	46 	48
f 44 	58 	48
f 47 	48 	46
f 45 	51 	66
f 60 	66 	51
f 37 	38 	40
f 37 	40 	57
f 21 	59 	199
f 50 	48 	58
f 56 	63 	40
f 56 	40 	38
f 9 	61 	62
f 9 	62 	10
f 58 	45 	64
f 53 	100 	52
f 54 	100 	53
f 55 	100 	54
f 56 	100 	55
f 38 	100 	56
f 37 	100 	38
f 46 	33 	31
f 64 	45 	66
f 65 	89 	80
f 59 	79 	199
f 23 	16 	78
f 76 	78 	16
f 68 	51 	77
f 55 	90 	63
f 55 	63 	56
f 74 	81 	72
f 72 	81 	82
f 72 	82 	84
f 72 	84 	86
f 72 	86 	87
f 72 	87 	88
f 72 	88 	83
f 61 	37 	83
f 9 	37 	61
f 72 	83 	37
f 51 	92 	77
f 71 	73 	75
f 71 	75 	95
f 66 	60 	94
f 91 	96 	78
f 91 	78 	76
f 92 	44 	98
f 54 	99 	90
f 54 	90 	55
f 60 	97 	94
f 95 	75 	107
f 95 	107 	109
f 44 	15 	98
f 106 	108 	96
f 106 	96 	91
f 104 	43 	103
f 102 	103 	43
f 101 	102 	43
f 105 	43 	104
f 6 	43 	105
f 100 	101 	43
f 43 	52 	100
f 100 	37 	111
f 35 	94 	97
f 53 	114 	99
f 53 	99 	54
f 113 	116 	108
f 113 	108 	106
f 109 	107 	112
f 109 	112 	117
f 70 	80 	89
f 65 	69 	89
f 120 	121 	116
f 120 	116 	113
f 52 	129 	114
f 52 	114 	53
f 117 	112 	138
f 117 	138 	139
f 132 	137 	121
f 132 	121 	120
f 125 	37 	123
f 122 	123 	37
f 8 	122 	37
f 127 	37 	125
f 128 	37 	127
f 131 	37 	128
f 133 	37 	131
f 134 	37 	133
f 135 	37 	134
f 111 	37 	135
f 9 	8 	37
f 126 	235 	136
f 124 	126 	136
f 136 	148 	124
f 148 	150 	124
f 139 	138 	144
f 139 	144 	146
f 143 	145 	137
f 143 	137 	132
f 141 	124 	150
f 140 	141 	150
f 150 	180 	140
f 43 	253 	52
f 146 	144 	151
f 146 	151 	153
f 89 	69 	12
f 180 	186 	140
f 154 	155 	190
f 163 	165 	145
f 163 	145 	143
f 271 	173 	160
f 158 	159 	157
f 157 	159 	161
f 157 	161 	162
f 157 	162 	164
f 157 	164 	166
f 157 	166 	167
f 157 	167 	168
f 157 	168 	169
f 157 	169 	171
f 157 	171 	172
f 157 	172 	174
f 61 	83 	85
f 61 	85 	62
f 176 	177 	165
f 176 	165 	163
f 178 	173 	271
f 149 	140 	186
f 191 	204 	182
f 181 	182 	204
f 191 	182 	175
f 183 	175 	182
f 184 	175 	183
f 156 	149 	186
f 185 	187 	177
f 185 	177 	176
f 155 	154 	170
f 155 	170 	194
f 190 	192 	187
f 190 	187 	185
f 17 	193 	188
f 204 	215 	181
f 179 	181 	215
f 186 	195 	156
f 34 	196 	195
f 156 	195 	196
f 194 	170 	198
f 194 	198 	200
f 190 	155 	192
f 200 	198 	212
f 85 	179 	215
f 153 	151 	207
f 206 	207 	151
f 83 	88 	179
f 83 	179 	85
f 212 	198 	210
f 205 	174 	203
f 201 	203 	174
f 199 	201 	174
f 208 	174 	205
f 157 	174 	208
f 42 	238 	174
f 199 	174 	197
f 213 	174 	1
f 197 	174 	213
f 189 	214 	233
f 215 	222 	85
f 222 	239 	85
f 212 	210 	216
f 212 	216 	217
f 88 	87 	181
f 88 	181 	179
f 16 	35 	97
f 24 	22 	16
f 91 	76 	22
f 76 	16 	22
f 106 	91 	218
f 218 	219 	106
f 220 	106 	219
f 227 	120 	220
f 217 	216 	221
f 217 	221 	223
f 214 	224 	233
f 97 	24 	16
f 62 	85 	239
f 47 	226 	115
f 223 	221 	229
f 223 	229 	231
f 87 	86 	182
f 87 	182 	181
f 111 	135 	235
f 1 	174 	225
f 193 	228 	42
f 228 	230 	42
f 230 	232 	42
f 232 	233 	42
f 233 	234 	42
f 234 	236 	42
f 236 	237 	42
f 238 	42 	237
f 225 	174 	238
f 231 	229 	240
f 231 	240 	7
f 209 	211 	207
f 209 	207 	206
f 71 	10 	239
f 86 	84 	183
f 86 	183 	182
f 22 	218 	91
f 243 	120 	227
f 70 	7 	240
f 209 	20 	211
f 28 	115 	68
f 15 	28 	68
f 92 	98 	68
f 77 	92 	68
f 98 	15 	68
f 184 	249 	245
f 245 	247 	184
f 84 	82 	184
f 84 	184 	183
f 106 	220 	113
f 119 	115 	242
f 226 	242 	115
f 184 	247 	175
f 198 	170 	118
f 202 	118 	154
f 113 	220 	120
f 135 	134 	248
f 135 	248 	235
f 238 	237 	69
f 132 	120 	243
f 130 	119 	246
f 242 	246 	119
f 188 	193 	42
f 115 	119 	68
f 119 	130 	68
f 42 	68 	130
f 130 	142 	42
f 142 	147 	42
f 147 	152 	42
f 152 	160 	42
f 160 	173 	42
f 178 	42 	173
f 188 	42 	178
f 249 	184 	81
f 82 	81 	184
f 134 	133 	250
f 134 	250 	248
f 69 	65 	225
f 69 	225 	238
f 132 	243 	143
f 251 	252 	143
f 176 	163 	252
f 252 	254 	176
f 256 	176 	254
f 142 	130 	257
f 246 	257 	130
f 81 	74 	258
f 81 	258 	249
f 255 	262 	259
f 249 	258 	262
f 259 	262 	258
f 202 	158 	157
f 243 	251 	143
f 256 	261 	185
f 202 	154 	261
f 133 	131 	260
f 133 	260 	250
f 245 	249 	262
f 65 	80 	225
f 129 	52 	253
f 142 	263 	147
f 257 	263 	142
f 163 	143 	252
f 131 	128 	264
f 131 	264 	260
f 261 	158 	202
f 198 	110 	210
f 118 	110 	198
f 93 	79 	210
f 216 	210 	79
f 59 	221 	79
f 21 	221 	59
f 152 	147 	265
f 263 	265 	147
f 190 	261 	154
f 176 	256 	185
f 170 	154 	118
f 72 	259 	258
f 72 	258 	74
f 110 	93 	210
f 21 	18 	240
f 43 	41 	266
f 43 	266 	253
f 128 	127 	267
f 128 	267 	264
f 185 	261 	190
f 159 	158 	256
f 261 	256 	158
f 160 	152 	268
f 265 	268 	152
f 216 	79 	221
f 18 	80 	240
f 70 	240 	80
f 127 	125 	269
f 127 	269 	267
f 41 	32 	270
f 41 	270 	266
f 221 	21 	229
f 268 	271 	160
f 229 	21 	240
f 125 	123 	273
f 125 	273 	269
f 161 	159 	254
f 256 	254 	159
f 47 	28 	48
f 15 	48 	28
f 178 	271 	274
f 32 	30 	275
f 32 	275 	270
f 126 	124 	100
f 126 	100 	111
f 123 	122 	278
f 123 	278 	273
f 34 	23 	196
f 78 	4 	23
f 36 	196 	23
f 5 	4 	96
f 277 	5 	108
f 96 	108 	5
f 78 	96 	4
f 36 	23 	4
f 254 	252 	162
f 254 	162 	161
f 28 	47 	115
f 276 	277 	108
f 209 	246 	19
f 246 	242 	19
f 31 	19 	226
f 47 	46 	226
f 30 	29 	280
f 30 	280 	275
f 235 	126 	111
f 194 	200 	129
f 171 	22 	172
f 242 	226 	19
f 164 	162 	251
f 252 	251 	162
f 108 	116 	276
f 116 	121 	276
f 31 	226 	46
f 114 	129 	200
f 22 	24 	174
f 22 	174 	172
f 29 	27 	283
f 29 	283 	280
f 281 	276 	121
f 196 	36 	105
f 6 	105 	36
f 174 	97 	42
f 24 	97 	174
f 251 	243 	166
f 251 	166 	164
f 268 	112 	271
f 271 	112 	274
f 279 	274 	75
f 73 	17 	75
f 68 	42 	60
f 97 	60 	42
f 18 	213 	1
f 80 	18 	1
f 27 	26 	282
f 27 	282 	283
f 137 	282 	121
f 213 	18 	197
f 21 	197 	18
f 105 	104 	156
f 105 	156 	196
f 175 	39 	272
f 166 	243 	167
f 227 	167 	243
f 199 	197 	21
f 26 	25 	281
f 26 	281 	282
f 60 	51 	68
f 281 	121 	282
f 145 	282 	137
f 165 	280 	145
f 275 	280 	177
f 165 	177 	280
f 283 	145 	280
f 282 	145 	283
f 75 	274 	107
f 144 	138 	265
f 175 	272 	284
f 175 	284 	191
f 104 	103 	149
f 104 	149 	156
f 79 	201 	199
f 168 	167 	220
f 227 	220 	167
f 107 	274 	112
f 265 	263 	151
f 270 	275 	177
f 191 	284 	285
f 191 	285 	204
f 92 	51 	45
f 93 	203 	201
f 93 	201 	79
f 112 	268 	138
f 25 	14 	276
f 25 	276 	281
f 103 	102 	140
f 103 	140 	149
f 177 	187 	270
f 266 	270 	187
f 187 	192 	266
f 203 	93 	205
f 110 	205 	93
f 204 	285 	286
f 204 	286 	215
f 268 	265 	138
f 151 	263 	257
f 220 	219 	169
f 220 	169 	168
f 45 	44 	92
f 118 	208 	205
f 110 	118 	205
f 192 	155 	266
f 253 	155 	129
f 144 	265 	151
f 102 	101 	141
f 102 	141 	140
f 14 	11 	277
f 14 	277 	276
f 215 	286 	287
f 215 	287 	222
f 118 	202 	208
f 208 	202 	157
f 253 	266 	155
f 194 	129 	155
f 15 	44 	48
f 171 	169 	218
f 219 	218 	169
f 222 	287 	288
f 222 	288 	239
f 151 	257 	206
f 246 	209 	257
f 209 	206 	257
f 101 	100 	124
f 101 	124 	141
f 193 	17 	228
f 49 	228 	17
f 11 	2 	5
f 11 	5 	277
f 239 	288 	73
f 239 	73 	71
f 33 	46 	136
f 67 	230 	228
f 49 	67 	228
f 218 	22 	171
f 50 	148 	136
f 50 	136 	46
f 230 	67 	232
f 189 	232 	67
f 259 	72 	57
f 37 	57 	72
f 20 	33 	235
f 211 	20 	250
f 260 	211 	250
f 245 	12 	39
f 245 	39 	247
f 58 	150 	148
f 58 	148 	50
f 33 	136 	235
f 233 	232 	189
f 247 	39 	175
f 64 	180 	150
f 64 	150 	58
f 224 	234 	233
f 66 	186 	180
f 66 	180 	64
f 7 	70 	255
f 241 	236 	234
f 241 	234 	224
f 62 	239 	10
f 95 	10 	71
f 109 	278 	95
f 273 	278 	117
f 109 	117 	278
f 13 	95 	278
f 10 	95 	13
f 236 	241 	237
f 244 	237 	241
f 255 	70 	89
f 255 	89 	262
f 269 	273 	117
f 94 	195 	186
f 94 	186 	66
f 244 	69 	237
f 12 	245 	89
f 262 	89 	245
f 117 	139 	269
f 267 	269 	139
f 139 	146 	267
f 35 	34 	195
f 35 	195 	94
f 146 	153 	267
f 80 	1 	225
f 39 	244 	272
f 39 	12 	244
f 241 	272 	244
f 285 	284 	224
f 214 	285 	224
f 189 	286 	214
f 264 	267 	153
f 241 	224 	272
f 287 	286 	67
f 260 	264 	153
f 212 	114 	200
f 217 	223 	90
f 212 	217 	90
f 90 	99 	212
f 114 	212 	99
f 284 	272 	224
f 49 	288 	67
f 153 	207 	260
f 207 	211 	260
f 63 	90 	223
f 40 	63 	223
f 223 	231 	40
f 248 	250 	20
f 235 	248 	20
f 285 	214 	286
f 73 	288 	17
f 279 	75 	17
f 274 	279 	188
f 274 	188 	178
f 231 	7 	40
f 57 	40 	7
f 189 	67 	286
f 122 	8 	13
f 122 	13 	278
f 255 	259 	7
f 279 	17 	188
f 287 	67 	288
f 49 	17 	288
f 57 	7 	259
# 572 faces

 #end of obj_0

