mtllib skin.mtl
o brazo_derecho
v 4.0000 12.0000 2.0000
v 8.0000 12.0000 2.0000
v 8.0000 24.0000 2.0000
v 4.0000 24.0000 2.0000
v 8.0000 12.0000 -2.0000
v 4.0000 12.0000 -2.0000
v 4.0000 24.0000 -2.0000
v 8.0000 24.0000 -2.0000
v 8.0000 12.0000 2.0000
v 8.0000 12.0000 -2.0000
v 8.0000 24.0000 -2.0000
v 8.0000 24.0000 2.0000
v 4.0000 12.0000 -2.0000
v 4.0000 12.0000 2.0000
v 4.0000 24.0000 2.0000
v 4.0000 24.0000 -2.0000
v 4.0000 24.0000 2.0000
v 8.0000 24.0000 2.0000
v 8.0000 24.0000 -2.0000
v 4.0000 24.0000 -2.0000
v 4.0000 12.0000 -2.0000
v 8.0000 12.0000 -2.0000
v 8.0000 12.0000 2.0000
v 4.0000 12.0000 2.0000
v 3.7500 11.7500 2.2500
v 8.2500 11.7500 2.2500
v 8.2500 24.2500 2.2500
v 3.7500 24.2500 2.2500
v 8.2500 11.7500 -2.2500
v 3.7500 11.7500 -2.2500
v 3.7500 24.2500 -2.2500
v 8.2500 24.2500 -2.2500
v 8.2500 11.7500 2.2500
v 8.2500 11.7500 -2.2500
v 8.2500 24.2500 -2.2500
v 8.2500 24.2500 2.2500
v 3.7500 11.7500 -2.2500
v 3.7500 11.7500 2.2500
v 3.7500 24.2500 2.2500
v 3.7500 24.2500 -2.2500
v 3.7500 24.2500 2.2500
v 8.2500 24.2500 2.2500
v 8.2500 24.2500 -2.2500
v 3.7500 24.2500 -2.2500
v 3.7500 11.7500 -2.2500
v 8.2500 11.7500 -2.2500
v 8.2500 11.7500 2.2500
v 3.7500 11.7500 2.2500
vt 0.566406 0.003906
vt 0.621094 0.003906
vt 0.621094 0.183594
vt 0.566406 0.183594
vt 0.691406 0.003906
vt 0.746094 0.003906
vt 0.746094 0.183594
vt 0.691406 0.183594
vt 0.503906 0.003906
vt 0.558594 0.003906
vt 0.558594 0.183594
vt 0.503906 0.183594
vt 0.628906 0.003906
vt 0.683594 0.003906
vt 0.683594 0.183594
vt 0.628906 0.183594
vt 0.566406 0.191406
vt 0.621094 0.191406
vt 0.621094 0.246094
vt 0.566406 0.246094
vt 0.628906 0.191406
vt 0.683594 0.191406
vt 0.683594 0.246094
vt 0.628906 0.246094
vt 0.816406 0.003906
vt 0.871094 0.003906
vt 0.871094 0.183594
vt 0.816406 0.183594
vt 0.941406 0.003906
vt 0.996094 0.003906
vt 0.996094 0.183594
vt 0.941406 0.183594
vt 0.753906 0.003906
vt 0.808594 0.003906
vt 0.808594 0.183594
vt 0.753906 0.183594
vt 0.878906 0.003906
vt 0.933594 0.003906
vt 0.933594 0.183594
vt 0.878906 0.183594
vt 0.816406 0.191406
vt 0.871094 0.191406
vt 0.871094 0.246094
vt 0.816406 0.246094
vt 0.878906 0.191406
vt 0.933594 0.191406
vt 0.933594 0.246094
vt 0.878906 0.246094
usemtl skin
f 1/1 2/2 3/3 4/4
f 5/5 6/6 7/7 8/8
f 9/9 10/10 11/11 12/12
f 13/13 14/14 15/15 16/16
f 17/17 18/18 19/19 20/20
f 21/21 22/22 23/23 24/24
f 25/25 26/26 27/27 28/28
f 29/29 30/30 31/31 32/32
f 33/33 34/34 35/35 36/36
f 37/37 38/38 39/39 40/40
f 41/41 42/42 43/43 44/44
f 45/45 46/46 47/47 48/48
